# Rhino

mtllib hypar.mtl
usemtl diffuse_Black
v 0 3000 0
v 0 2625 -625
v 0 2250 -1250
v 0 1875 -1875
v 0 1500 -2500
v 0 1125 -3125
v 0 750 -3750
v 0 375 -4375
v 0 0 -5000
v 625 2625 0
v 625 2343.75 -625
v 625 2062.5 -1250
v 625 1781.25 -1875
v 625 1500 -2500
v 625 1218.75 -3125
v 625 937.5 -3750
v 625 656.25 -4375
v 625 375 -5000
v 1250 2250 0
v 1250 2062.5 -625
v 1250 1875 -1250
v 1250 1687.5 -1875
v 1250 1500 -2500
v 1250 1312.5 -3125
v 1250 1125 -3750
v 1250 937.5 -4375
v 1250 750 -5000
v 1875 1875 0
v 1875 1781.25 -625
v 1875 1687.5 -1250
v 1875 1593.75 -1875
v 1875 1500 -2500
v 1875 1406.25 -3125
v 1875 1312.5 -3750
v 1875 1218.75 -4375
v 1875 1125 -5000
v 2500 1500 0
v 2500 1500 -625
v 2500 1500 -1250
v 2500 1500 -1875
v 2500 1500 -2500
v 2500 1500 -3125
v 2500 1500 -3750
v 2500 1500 -4375
v 2500 1500 -5000
v 3125 1125 0
v 3125 1218.75 -625
v 3125 1312.5 -1250
v 3125 1406.25 -1875
v 3125 1500 -2500
v 3125 1593.75 -3125
v 3125 1687.5 -3750
v 3125 1781.25 -4375
v 3125 1875 -5000
v 3750 750 0
v 3750 937.5 -625
v 3750 1125 -1250
v 3750 1312.5 -1875
v 3750 1500 -2500
v 3750 1687.5 -3125
v 3750 1875 -3750
v 3750 2062.5 -4375
v 3750 2250 -5000
v 4375 375 0
v 4375 656.25 -625
v 4375 937.5 -1250
v 4375 1218.75 -1875
v 4375 1500 -2500
v 4375 1781.25 -3125
v 4375 2062.5 -3750
v 4375 2343.75 -4375
v 4375 2625 -5000
v 5000 0 0
v 5000 375 -625
v 5000 750 -1250
v 5000 1125 -1875
v 5000 1500 -2500
v 5000 1875 -3125
v 5000 2250 -3750
v 5000 2625 -4375
v 5000 3000 -5000
vn 0.42152020335197449 0.80289566516876221 -0.42152020335197449
vn 0.3689197301864624 0.82294303178787231 -0.43204507231712341
vn 0.2557331919670105 0.85595613718032837 -0.44937697052955627
vn 0.13109540939331055 0.87775671482086182 -0.46082225441932678
vn 0 0.88539791107177734 -0.46483388543128967
vn -0.13109540939331055 0.87775671482086182 -0.46082225441932678
vn -0.2557331919670105 0.85595613718032837 -0.44937697052955627
vn -0.3689197301864624 0.82294303178787231 -0.43204507231712341
vn -0.42152020335197449 0.80289566516876221 -0.42152020335197449
vn 0.43204507231712341 0.82294303178787231 -0.3689197301864624
vn 0.37856274843215942 0.84461855888366699 -0.37856274843215942
vn 0.26299339532852173 0.88045984506607056 -0.39449328184127808
vn 0.13501951098442078 0.90426343679428101 -0.40506470203399658
vn 0 0.91263294219970703 -0.40878000855445862
vn -0.13501951098442078 0.90426343679428101 -0.40506470203399658
vn -0.26299339532852173 0.88045984506607056 -0.39449328184127808
vn -0.37856274843215942 0.84461855888366699 -0.37856274843215942
vn -0.43204507231712341 0.82294303178787231 -0.3689197301864624
vn 0.44937697052955627 0.85595613718032837 -0.2557331919670105
vn 0.39449328184127808 0.88045984506607056 -0.26299336552619934
vn 0.27506327629089355 0.9212384819984436 -0.27506327629089355
vn 0.14157159626483917 0.9485706090927124 -0.28314533829689026
vn 0 0.95822960138320923 -0.28599995374679565
vn -0.14157158136367798 0.9485706090927124 -0.28314533829689026
vn -0.27506324648857117 0.92123854160308838 -0.27506324648857117
vn -0.39449328184127808 0.88045984506607056 -0.26299339532852173
vn -0.44937697052955627 0.85595613718032837 -0.2557331919670105
vn 0.46082225441932678 0.87775671482086182 -0.13109540939331055
vn 0.40506470203399658 0.90426343679428101 -0.13501951098442078
vn 0.28314530849456787 0.9485706090927124 -0.14157158136367798
vn 0.1459861546754837 0.97845596075057983 -0.1459861546754837
vn 0 0.98905450105667114 -0.1475507915019989
vn -0.1459861546754837 0.97845596075057983 -0.1459861546754837
vn -0.28314530849456787 0.9485706090927124 -0.14157158136367798
vn -0.40506473183631897 0.90426337718963623 -0.13501951098442078
vn -0.46082225441932678 0.87775671482086182 -0.13109540939331055
vn 0.46483388543128967 0.88539791107177734 0
vn 0.40878000855445862 0.91263294219970703 0
vn 0.28599995374679565 0.95822960138320923 1.871847787882075E-09
vn 0.1475508064031601 0.98905450105667114 0
vn 0 1 0
vn -0.1475508064031601 0.98905450105667114 0
vn -0.28599992394447327 0.958229660987854 1.87184756583747E-09
vn -0.40878003835678101 0.91263294219970703 0
vn -0.46483388543128967 0.88539791107177734 0
vn 0.46082225441932678 0.87775671482086182 0.13109540939331055
vn 0.40506470203399658 0.90426343679428101 0.13501952588558197
vn 0.28314530849456787 0.9485706090927124 0.14157158136367798
vn 0.1459861695766449 0.97845596075057983 0.1459861695766449
vn 0 0.98905450105667114 0.14755082130432129
vn -0.1459861695766449 0.97845596075057983 0.1459861695766449
vn -0.28314533829689026 0.9485706090927124 0.14157159626483917
vn -0.40506473183631897 0.90426337718963623 0.13501951098442078
vn -0.46082225441932678 0.87775671482086182 0.13109540939331055
vn 0.44937697052955627 0.85595613718032837 0.2557331919670105
vn 0.39449328184127808 0.88045984506607056 0.26299339532852173
vn 0.27506327629089355 0.92123854160308838 0.27506324648857117
vn 0.14157158136367798 0.9485706090927124 0.28314530849456787
vn 0 0.958229660987854 0.28599992394447327
vn -0.14157158136367798 0.9485706090927124 0.28314530849456787
vn -0.27506327629089355 0.92123854160308838 0.27506324648857117
vn -0.39449328184127808 0.88045984506607056 0.26299336552619934
vn -0.44937697052955627 0.85595613718032837 0.2557331919670105
vn 0.43204507231712341 0.82294303178787231 0.3689197301864624
vn 0.37856274843215942 0.84461855888366699 0.37856271862983704
vn 0.26299339532852173 0.88045984506607056 0.39449325203895569
vn 0.13501951098442078 0.90426337718963623 0.40506473183631897
vn 0 0.91263294219970703 0.40878003835678101
vn -0.13501952588558197 0.90426337718963623 0.40506473183631897
vn -0.26299339532852173 0.88045984506607056 0.39449328184127808
vn -0.37856274843215942 0.84461855888366699 0.37856271862983704
vn -0.43204507231712341 0.82294303178787231 0.3689197301864624
vn 0.42152020335197449 0.80289566516876221 0.42152020335197449
vn 0.3689197301864624 0.82294303178787231 0.43204507231712341
vn 0.2557331919670105 0.85595613718032837 0.44937697052955627
vn 0.13109540939331055 0.87775671482086182 0.46082225441932678
vn 0 0.88539791107177734 0.46483388543128967
vn -0.13109540939331055 0.87775671482086182 0.46082225441932678
vn -0.2557331919670105 0.85595613718032837 0.44937697052955627
vn -0.3689197301864624 0.82294303178787231 0.43204507231712341
vn -0.42152020335197449 0.80289566516876221 0.42152020335197449
f 11//11 2//2 1//1 10//10
f 12//12 3//3 2//2 11//11
f 13//13 4//4 3//3 12//12
f 14//14 5//5 4//4 13//13
f 15//15 6//6 5//5 14//14
f 16//16 7//7 6//6 15//15
f 17//17 8//8 7//7 16//16
f 18//18 9//9 8//8 17//17
f 20//20 11//11 10//10 19//19
f 21//21 12//12 11//11 20//20
f 22//22 13//13 12//12 21//21
f 23//23 14//14 13//13 22//22
f 24//24 15//15 14//14 23//23
f 25//25 16//16 15//15 24//24
f 26//26 17//17 16//16 25//25
f 27//27 18//18 17//17 26//26
f 29//29 20//20 19//19 28//28
f 30//30 21//21 20//20 29//29
f 31//31 22//22 21//21 30//30
f 32//32 23//23 22//22 31//31
f 33//33 24//24 23//23 32//32
f 34//34 25//25 24//24 33//33
f 35//35 26//26 25//25 34//34
f 36//36 27//27 26//26 35//35
f 38//38 29//29 28//28 37//37
f 39//39 30//30 29//29 38//38
f 40//40 31//31 30//30 39//39
f 41//41 32//32 31//31 40//40
f 42//42 33//33 32//32 41//41
f 43//43 34//34 33//33 42//42
f 44//44 35//35 34//34 43//43
f 45//45 36//36 35//35 44//44
f 47//47 38//38 37//37 46//46
f 48//48 39//39 38//38 47//47
f 49//49 40//40 39//39 48//48
f 50//50 41//41 40//40 49//49
f 51//51 42//42 41//41 50//50
f 52//52 43//43 42//42 51//51
f 53//53 44//44 43//43 52//52
f 54//54 45//45 44//44 53//53
f 56//56 47//47 46//46 55//55
f 57//57 48//48 47//47 56//56
f 58//58 49//49 48//48 57//57
f 59//59 50//50 49//49 58//58
f 60//60 51//51 50//50 59//59
f 61//61 52//52 51//51 60//60
f 62//62 53//53 52//52 61//61
f 63//63 54//54 53//53 62//62
f 65//65 56//56 55//55 64//64
f 66//66 57//57 56//56 65//65
f 67//67 58//58 57//57 66//66
f 68//68 59//59 58//58 67//67
f 69//69 60//60 59//59 68//68
f 70//70 61//61 60//60 69//69
f 71//71 62//62 61//61 70//70
f 72//72 63//63 62//62 71//71
f 74//74 65//65 64//64 73//73
f 75//75 66//66 65//65 74//74
f 76//76 67//67 66//66 75//75
f 77//77 68//68 67//67 76//76
f 78//78 69//69 68//68 77//77
f 79//79 70//70 69//69 78//78
f 80//80 71//71 70//70 79//79
f 81//81 72//72 71//71 80//80
